<?xml version="1.0" encoding="utf-8"?>
<!-- Generator: Adobe Illustrator 23.0.4, SVG Export Plug-In . SVG Version: 6.00 Build 0)  -->
<svg version="1.1" xmlns="http://www.w3.org/2000/svg" xmlns:xlink="http://www.w3.org/1999/xlink" x="0px" y="0px"
	 viewBox="0 0 351.4 449" style="enable-background:new 0 0 351.4 449;" xml:space="preserve">
<style type="text/css">
	.st0{display:none;}
	.st1{fill:#485454;}
	.st2{fill:#F3FDFF;}
</style>
<g id="Слой_1" class="st0">
	
		<image style="display:inline;overflow:visible;" width="1712" height="2217" xlink:href="../../../../../../Desktop/IMG_7773.png"  transform="matrix(0.2062 0 0 0.2062 18.8258 1.4479)">
	</image>
</g>
<g id="Слой_6">
	<g id="Слой_3">
		<path class="st1" d="M333.1,130.4L333.1,130.4c2.2,0,4.3-0.8,6-2.1l5.4-4.4c0.7-0.6,1.3-1.2,1.8-1.9l3.4-4.9
			c1.7-2.4,2.2-5.5,1.3-8.3l-3.6-11.4c-1.6-5-4.3-9.6-8.1-13.4l-4.3-4.3c-1.9-1.9-4-3.4-6.4-4.5l-9.5-4.5c-4.3-2-6.4-6.9-5-11.5
			l4-12.7c0.6-1.9,0.6-4-0.1-5.9v0c-2.6-7.7-7.3-14.5-13.6-19.6l-4.8-3.9c-0.8-0.7-1.8-1.2-2.8-1.6l-11.3-4.1
			c-3.2-1.1-6.5-1.7-9.9-1.7h-29.3c-1.2,0-2.5,0.2-3.6,0.7l-4.4,1.8c-1.5,0.6-3,1-4.6,1.2L201.3,17c-0.7,0.1-1.4,0.2-2.1,0.5
			l-27.5,9.5l-22.2,7.7c-0.3,0.1-0.5,0.2-0.8,0.3l-29,13.1c-0.7,0.3-1.3,0.7-1.9,1.1L73.7,83c-0.7,0.5-1.3,1.1-1.8,1.8l-14,18.2
			c-0.9,1.2-1.6,2.7-1.8,4.2l-4.9,28.7c0,0.3-0.1,0.6-0.1,0.8l-8.7,107.5c-0.1,0.7,0,1.4,0.1,2l0.7,19.9c0.5,13.2,3.1,26.4,7.8,38.7
			c0.9,2.4,1.7,4.1,2.1,4.5l68.5,66.2c0.1,0.1,0.3,0.3,0.5,0.4l62.7,53.2c0.8,0.7,5.2,2.4,9.3,4c0.7,0.3,1.4,0.6,2,0.9l6.9,3.2
			c4.5,2.1,9.3,3.5,14.2,4.2c0.7,0.1,1.2,0.2,1.5,0.2h20.5c10.6-2.2,16.1-8.1,17.8-9.4l38.9-33.5c1-0.8,1.9-1.9,2.5-3.1l10-19.4
			c4.9-9.4,8.3-19.5,10.1-30l12.8-72.7c3.5-26.4,7.7-52.9,3.3-79.2l-3.6-26.3c-0.1-0.4-0.1-0.9-0.3-1.3l-6.8-24.3
			C322.2,136.5,326.7,130.4,333.1,130.4z"/>
	</g>
	<g id="Слой_2">
		<path class="st2" d="M302.8,136.2l-31.8,2c-13.1,0.8-26.3-0.4-39-3.7l-30.8-7.9c0,0-0.1,0-0.3,0c-2.7-0.2-3.5-0.1-5,0.2l-78.8,10
			c-11.1,1.4-20,9.9-22,21l-20.6,96.5c-4.4,20.6,5.6,41.5,24.3,51l75,32.2c6.6,2.8,13.5,5.1,20.6,6.8l59,13.9
			c12.2,2.9,24.9,1.2,36-4.5c13.4-7,24.8-11.2,25.4-13.7c11.9-46,13.1-63.5,14.6-77.5c2.5-23.7,3.4-77.4-1.4-103.2
			C324.1,137.7,313.9,136.2,302.8,136.2z"/>
	</g>
	<g id="Слой_9">
		<path class="st2" d="M44.2,172c-8-4-17.7-1.6-22.9,5.6c-9.6,11.6-16.9,38,8.5,48.3c19.8,8,23.3-5,23.3-5l3.2-39.3L44.2,172z"/>
	</g>
	<g id="Слой_4">
		<polygon class="st1" points="174.2,168.4 158,204.8 234,178.7 236.3,152.5 		"/>
	</g>
	<g id="Слой_5">
		<polyline class="st1" points="232.6,199.3 165.9,219.3 168.3,222.3 233.6,206.3 		"/>
	</g>
	<g id="Слой_8">
		<polygon class="st1" points="280,152.5 273,178.7 326.1,188.9 316.8,166.1 		"/>
	</g>
	<g id="Слой_5__x28_копия_x29_">
		<polyline class="st1" points="274.2,195.9 324.1,210.8 324,215.2 274.2,204.8 		"/>
	</g>
</g>
</svg>
