<?xml version="1.0" encoding="utf-8"?>
<!-- Generator: Adobe Illustrator 23.0.4, SVG Export Plug-In . SVG Version: 6.00 Build 0)  -->
<svg version="1.1" xmlns="http://www.w3.org/2000/svg" xmlns:xlink="http://www.w3.org/1999/xlink" x="0px" y="0px"
	 viewBox="0 0 1061.8 656.7" style="enable-background:new 0 0 1061.8 656.7;" xml:space="preserve">
<style type="text/css">
	.st0{fill:none;stroke:url(#SVGID_1_);stroke-width:6.0197;stroke-miterlimit:10;}
	.st1{fill:none;stroke:url(#SVGID_2_);stroke-width:5.8156;stroke-miterlimit:10;}
	.st2{fill:none;stroke:url(#SVGID_3_);stroke-width:5.6115;stroke-miterlimit:10;}
	.st3{fill:none;stroke:url(#SVGID_4_);stroke-width:5.4074;stroke-miterlimit:10;}
	.st4{fill:none;stroke:url(#SVGID_5_);stroke-width:5.2033;stroke-miterlimit:10;}
	.st5{fill:none;stroke:url(#SVGID_6_);stroke-width:4.9992;stroke-miterlimit:10;}
	.st6{fill:none;stroke:url(#SVGID_7_);stroke-width:4.7951;stroke-miterlimit:10;}
	.st7{fill:none;stroke:url(#SVGID_8_);stroke-width:4.591;stroke-miterlimit:10;}
	.st8{fill:none;stroke:url(#SVGID_9_);stroke-width:4.3869;stroke-miterlimit:10;}
	.st9{fill:none;stroke:url(#SVGID_10_);stroke-width:4.1828;stroke-miterlimit:10;}
	.st10{fill:none;stroke:url(#SVGID_11_);stroke-width:3.9787;stroke-miterlimit:10;}
	.st11{fill:none;stroke:url(#SVGID_12_);stroke-width:3.7746;stroke-miterlimit:10;}
	.st12{fill:none;stroke:url(#SVGID_13_);stroke-width:3.5705;stroke-miterlimit:10;}
	.st13{fill:none;stroke:url(#SVGID_14_);stroke-width:3.3665;stroke-miterlimit:10;}
	.st14{fill:none;stroke:url(#SVGID_15_);stroke-width:3.1623;stroke-miterlimit:10;}
	.st15{fill:none;stroke:url(#SVGID_16_);stroke-width:2.9583;stroke-miterlimit:10;}
	.st16{fill:none;stroke:url(#SVGID_17_);stroke-width:2.7542;stroke-miterlimit:10;}
	.st17{fill:none;stroke:url(#SVGID_18_);stroke-width:2.5501;stroke-miterlimit:10;}
	.st18{fill:none;stroke:url(#SVGID_19_);stroke-width:2.346;stroke-miterlimit:10;}
	.st19{fill:none;stroke:url(#SVGID_20_);stroke-width:2.1419;stroke-miterlimit:10;}
	.st20{fill:none;stroke:url(#SVGID_21_);stroke-width:1.9378;stroke-miterlimit:10;}
	.st21{fill:none;stroke:url(#SVGID_22_);stroke-width:1.7337;stroke-miterlimit:10;}
	.st22{fill:none;stroke:url(#SVGID_23_);stroke-width:1.5296;stroke-miterlimit:10;}
	.st23{fill:none;stroke:url(#SVGID_24_);stroke-width:1.3255;stroke-miterlimit:10;}
	.st24{fill:none;stroke:url(#SVGID_25_);stroke-width:1.1214;stroke-miterlimit:10;}
	.st25{fill:none;stroke:url(#SVGID_26_);stroke-width:0.9173;stroke-miterlimit:10;}
	.st26{fill:#373F3F;}
	.st27{font-family:'Impact';}
	.st28{font-size:72px;}
	.st29{display:none;}
	.st30{fill:#485454;}
	.st31{fill:#F3FDFF;}
</style>
<g id="Слой_10">
	<g>
		<radialGradient id="SVGID_1_" cx="861.1935" cy="575.3846" r="37.5275" gradientUnits="userSpaceOnUse">
			<stop  offset="0" style="stop-color:#287DD1"/>
			<stop  offset="0" style="stop-color:#438ED7"/>
			<stop  offset="0" style="stop-color:#87B9E6"/>
			<stop  offset="0" style="stop-color:#F3FDFF"/>
		</radialGradient>
		<path class="st0" d="M863,611c-19.7,2.6-31.8-12-34.4-31.7c-2.6-19.7,5.1-37,24.8-39.6c19.7-2.6,37.8,20.7,40.5,40.4
			C896.6,599.8,882.7,608.4,863,611z"/>
		<radialGradient id="SVGID_2_" cx="858.8042" cy="575.0155" r="46.8814" gradientUnits="userSpaceOnUse">
			<stop  offset="0" style="stop-color:#287DD1"/>
			<stop  offset="0" style="stop-color:#438ED7"/>
			<stop  offset="0" style="stop-color:#87B9E6"/>
			<stop  offset="0" style="stop-color:#F3FDFF"/>
		</radialGradient>
		<path class="st1" d="M848.8,529.3c9.8-2,17.3,3.8,25.8,8.3c8,4.3,14.2,7.8,18.9,14.9c5.4,8.2,6.2,19.4,6.9,28.7
			c0.9,13.9-0.7,23.3-9.5,30.2c-7.2,5.6-16.7,6.6-28,8.4c-7.7,1.2-13.9,2.3-20.1,0.2c-8.4-3-13.3-9.3-17.6-18.1
			c-3.2-6.5-7.2-12.9-7.9-21.4c-0.8-9.8,1.6-18.5,5.1-26.4C827.4,542.4,833.9,532.3,848.8,529.3z"/>
		<radialGradient id="SVGID_3_" cx="856.415" cy="574.6464" r="56.462" gradientUnits="userSpaceOnUse">
			<stop  offset="0" style="stop-color:#287DD1"/>
			<stop  offset="0" style="stop-color:#438ED7"/>
			<stop  offset="0" style="stop-color:#87B9E6"/>
			<stop  offset="0" style="stop-color:#F3FDFF"/>
		</radialGradient>
		<path class="st2" d="M844.2,518.6c12.7-3,20.9,6.1,31.9,11.1c11.2,5,19.2,7.2,25,16.1c6.5,9.8,5.3,24.7,5.6,36.2
			c0.4,17,0.8,28.3-10,37c-8.9,7.2-20.3,6.8-34,9.2c-9.5,1.7-16.8,4.6-24.8,2.2c-10.9-3.4-16.1-11.3-21.3-22.8
			c-3.7-8.2-10.1-15.4-10.7-26.2c-0.6-11.6,3.8-21.5,8.3-31.1C820.8,536.4,826.2,522.9,844.2,518.6z"/>
		<radialGradient id="SVGID_4_" cx="854.0258" cy="574.2773" r="66.2479" gradientUnits="userSpaceOnUse">
			<stop  offset="0" style="stop-color:#287DD1"/>
			<stop  offset="0" style="stop-color:#438ED7"/>
			<stop  offset="0" style="stop-color:#87B9E6"/>
			<stop  offset="0" style="stop-color:#F3FDFF"/>
		</radialGradient>
		<path class="st3" d="M839.4,507.9c15.6-4.1,24.6,8.4,38,13.8c14.3,5.7,24.1,6.6,31.2,17.2c7.6,11.4,4.4,30.1,4.4,43.7
			c0,20,2.3,33.2-10.6,43.8c-10.6,8.8-23.9,7-40.1,10c-11.4,2.2-19.8,6.9-29.5,4.2c-13.4-3.8-18.8-13.3-25-27.6
			c-4.3-9.9-13-17.9-13.5-31.1c-0.5-13.5,5.8-24.6,11.5-35.7C813.9,530.4,818.3,513.4,839.4,507.9z"/>
		<radialGradient id="SVGID_5_" cx="851.6365" cy="573.9081" r="76.2144" gradientUnits="userSpaceOnUse">
			<stop  offset="0" style="stop-color:#287DD1"/>
			<stop  offset="0" style="stop-color:#438ED7"/>
			<stop  offset="0" style="stop-color:#87B9E6"/>
			<stop  offset="0" style="stop-color:#F3FDFF"/>
		</radialGradient>
		<path class="st4" d="M834.3,497.1c18.5-5.2,28.3,10.7,44.2,16.5c17.5,6.4,29,6.1,37.3,18.4c8.7,13,3.5,35.4,3.1,51.2
			c-0.5,23,3.7,38.1-11.1,50.6c-12.3,10.4-27.5,7.2-46.1,10.9c-13.2,2.6-22.7,9.2-34.2,6.2c-15.9-4.2-21.6-15.3-28.8-32.3
			c-4.9-11.7-16-20.4-16.2-35.9c-0.3-15.4,7.9-27.7,14.7-40.4C806.7,524.3,810,503.9,834.3,497.1z"/>
		<radialGradient id="SVGID_6_" cx="849.2472" cy="573.5389" r="86.2282" gradientUnits="userSpaceOnUse">
			<stop  offset="0" style="stop-color:#287DD1"/>
			<stop  offset="0" style="stop-color:#438ED7"/>
			<stop  offset="0" style="stop-color:#87B9E6"/>
			<stop  offset="0" style="stop-color:#F3FDFF"/>
		</radialGradient>
		<path class="st5" d="M829.1,486.3c21.3-6.3,32,13,50.3,19.3c20.7,7.1,34,5.5,43.5,19.6c9.8,14.6,2.6,40.7,1.9,58.8
			c-1,26,5.2,43.1-11.7,57.4c-14,12-31.1,7.4-52.1,11.7c-15.1,3.1-25.6,11.5-38.9,8.2c-18.4-4.6-24.3-17.3-32.5-37.1
			c-5.5-13.4-18.9-22.9-19-40.7c-0.1-17.3,10-30.8,17.9-45.1C799.4,518.1,801.6,494.4,829.1,486.3z"/>
		<radialGradient id="SVGID_7_" cx="846.858" cy="573.1699" r="96.2661" gradientUnits="userSpaceOnUse">
			<stop  offset="0" style="stop-color:#287DD1"/>
			<stop  offset="0" style="stop-color:#438ED7"/>
			<stop  offset="0" style="stop-color:#87B9E6"/>
			<stop  offset="0" style="stop-color:#F3FDFF"/>
		</radialGradient>
		<path class="st6" d="M823.8,475.5c24.2-7.4,35.7,15.2,56.5,22c23.8,7.8,38.9,5,49.6,20.8c10.9,16.2,1.7,46,0.7,66.3
			c-1.5,29,6.6,48-12.2,64.3c-15.7,13.6-34.7,7.6-58.2,12.5c-17,3.5-28.6,13.8-43.7,10.2c-20.9-5-27.1-19.4-36.2-41.8
			c-6.1-15.1-21.8-25.4-21.8-45.6c0-19.2,12.1-33.9,21-49.8C792.1,512,793.3,484.8,823.8,475.5z"/>
		<radialGradient id="SVGID_8_" cx="844.4687" cy="572.8007" r="106.3178" gradientUnits="userSpaceOnUse">
			<stop  offset="0" style="stop-color:#287DD1"/>
			<stop  offset="0" style="stop-color:#438ED7"/>
			<stop  offset="0" style="stop-color:#87B9E6"/>
			<stop  offset="0" style="stop-color:#F3FDFF"/>
		</radialGradient>
		<path class="st7" d="M818.6,464.7c27.1-8.5,39.4,17.5,62.6,24.7c27,8.4,43.9,4.4,55.7,21.9c12.1,17.8,0.8,51.3-0.6,73.8
			c-2,32.1,8.1,52.9-12.7,71.1c-17.4,15.2-38.2,7.9-64.2,13.3c-18.8,4-31.5,16.1-48.4,12.2c-23.4-5.4-29.8-21.4-39.9-46.6
			c-6.7-16.8-24.8-27.9-24.6-50.4c0.2-21,14.2-37,24.2-54.5C784.7,505.9,784.8,475.3,818.6,464.7z"/>
		<radialGradient id="SVGID_9_" cx="842.0795" cy="572.4315" r="116.3784" gradientUnits="userSpaceOnUse">
			<stop  offset="0" style="stop-color:#287DD1"/>
			<stop  offset="0" style="stop-color:#438ED7"/>
			<stop  offset="0" style="stop-color:#87B9E6"/>
			<stop  offset="0" style="stop-color:#F3FDFF"/>
		</radialGradient>
		<path class="st8" d="M813.3,453.9c29.9-9.6,43,19.7,68.7,27.5c30.2,9.1,48.8,3.9,61.9,23.1c13.2,19.4-0.1,56.7-1.8,81.4
			c-2.5,35.1,9.6,57.9-13.3,77.9c-19.1,16.8-41.8,8.1-70.3,14.2c-20.7,4.5-34.5,18.4-53.1,14.2c-25.9-5.8-32.6-23.4-43.6-51.4
			c-7.3-18.5-27.7-30.4-27.4-55.3c0.4-22.9,16.2-40.1,27.4-59.1C777.4,499.7,776.4,465.7,813.3,453.9z"/>
		<radialGradient id="SVGID_10_" cx="839.6902" cy="572.0624" r="126.4449" gradientUnits="userSpaceOnUse">
			<stop  offset="0" style="stop-color:#287DD1"/>
			<stop  offset="0" style="stop-color:#438ED7"/>
			<stop  offset="0" style="stop-color:#87B9E6"/>
			<stop  offset="0" style="stop-color:#F3FDFF"/>
		</radialGradient>
		<path class="st9" d="M808,443.1c32.8-10.7,46.7,22,74.9,30.2c33.4,9.7,53.8,3.3,68,24.3c14.3,21-1,62-3.1,88.9
			c-2.9,38.1,11,62.8-13.8,84.7c-20.9,18.4-45.4,8.3-76.3,15c-22.6,4.9-37.4,20.7-57.8,16.2c-28.4-6.2-35.4-25.4-47.3-56.1
			c-7.9-20.2-30.7-32.9-30.1-60.1c0.5-24.8,18.3-43.2,30.6-63.8C770,493.6,768,456.1,808,443.1z"/>
		<radialGradient id="SVGID_11_" cx="837.301" cy="571.6933" r="136.518" gradientUnits="userSpaceOnUse">
			<stop  offset="0" style="stop-color:#287DD1"/>
			<stop  offset="0" style="stop-color:#438ED7"/>
			<stop  offset="0" style="stop-color:#87B9E6"/>
			<stop  offset="0" style="stop-color:#F3FDFF"/>
		</radialGradient>
		<path class="st10" d="M802.7,432.3c35.7-11.8,50.4,24.3,81,32.9c36.6,10.4,58.7,2.8,74.2,25.5c15.4,22.6-1.8,67.3-4.3,96.4
			c-3.3,41.1,12.5,67.7-14.3,91.5c-22.6,20-49,8.5-82.4,15.8c-24.4,5.4-40.3,23-62.5,18.2c-30.9-6.7-38.1-27.4-51-60.9
			c-8.5-21.9-33.6-35.4-32.9-65c0.7-26.7,20.4-46.3,33.8-68.5C762.6,487.4,759.6,446.6,802.7,432.3z"/>
		<radialGradient id="SVGID_12_" cx="834.9118" cy="571.3241" r="146.5915" gradientUnits="userSpaceOnUse">
			<stop  offset="0" style="stop-color:#287DD1"/>
			<stop  offset="0" style="stop-color:#438ED7"/>
			<stop  offset="0" style="stop-color:#87B9E6"/>
			<stop  offset="0" style="stop-color:#F3FDFF"/>
		</radialGradient>
		<path class="st11" d="M797.4,421.5c38.6-12.9,54.1,26.5,87.2,35.7c39.7,11,63.6,2.2,80.3,26.6c16.5,24.2-2.7,72.6-5.5,104
			c-3.8,44.1,13.9,72.7-14.9,98.3c-24.3,21.6-52.6,8.7-88.4,16.6c-26.3,5.9-43.3,25.3-67.2,20.2c-33.4-7.1-40.9-29.4-54.8-65.6
			c-9.1-23.6-36.6-37.9-35.7-69.8c0.8-28.5,22.5-49.4,37-73.2C755.3,481.3,751.1,437,797.4,421.5z"/>
		<radialGradient id="SVGID_13_" cx="832.5225" cy="570.955" r="156.6675" gradientUnits="userSpaceOnUse">
			<stop  offset="0" style="stop-color:#287DD1"/>
			<stop  offset="0" style="stop-color:#438ED7"/>
			<stop  offset="0" style="stop-color:#87B9E6"/>
			<stop  offset="0" style="stop-color:#F3FDFF"/>
		</radialGradient>
		<path class="st12" d="M792.1,410.7c41.4-14,57.8,28.8,93.3,38.4c42.9,11.6,68.6,1.7,86.5,27.8c17.6,25.8-3.6,77.9-6.8,111.5
			c-4.3,47.2,15.4,77.6-15.4,105.1c-26,23.2-56.2,8.9-94.5,17.5c-28.1,6.3-46.2,27.5-72,22.2c-35.9-7.5-43.7-31.4-58.5-70.4
			c-9.7-25.4-39.5-40.4-38.5-74.6c1-30.4,24.6-52.4,40.2-77.9C747.9,475.2,742.7,427.4,792.1,410.7z"/>
		<radialGradient id="SVGID_14_" cx="830.1333" cy="570.5858" r="166.7453" gradientUnits="userSpaceOnUse">
			<stop  offset="0" style="stop-color:#287DD1"/>
			<stop  offset="0" style="stop-color:#438ED7"/>
			<stop  offset="0" style="stop-color:#87B9E6"/>
			<stop  offset="0" style="stop-color:#F3FDFF"/>
		</radialGradient>
		<path class="st13" d="M786.8,399.9c44.3-15.1,61.5,31,99.4,41.1c46.1,12.3,73.5,1.1,92.6,29c18.7,27.4-4.5,83.3-8,119
			c-4.8,50.2,16.9,82.5-16,112c-27.7,24.8-59.8,9.1-100.5,18.3c-30,6.8-49.2,29.8-76.7,24.2c-38.4-7.9-46.4-33.4-62.2-75.1
			c-10.3-27.1-42.5-42.9-41.2-79.5c1.1-32.3,26.7-55.5,43.4-82.5C740.5,469,734.2,417.9,786.8,399.9z"/>
		<radialGradient id="SVGID_15_" cx="827.744" cy="570.2167" r="176.8244" gradientUnits="userSpaceOnUse">
			<stop  offset="0" style="stop-color:#287DD1"/>
			<stop  offset="0" style="stop-color:#438ED7"/>
			<stop  offset="0" style="stop-color:#87B9E6"/>
			<stop  offset="0" style="stop-color:#F3FDFF"/>
		</radialGradient>
		<path class="st14" d="M781.5,389.1c47.1-16.3,65.2,33.3,105.6,43.9c49.3,12.9,78.5,0.6,98.8,30.2c19.9,29-5.4,88.6-9.3,126.6
			c-5.3,53.2,18.3,87.5-16.5,118.8c-29.4,26.4-63.3,9.4-106.6,19.1c-31.9,7.2-52.1,32.1-81.4,26.2c-40.9-8.3-49.2-35.5-65.9-79.9
			c-10.9-28.8-45.5-45.4-44-84.3c1.3-34.2,28.8-58.6,46.5-87.2C733.1,462.9,725.8,408.3,781.5,389.1z"/>
		<radialGradient id="SVGID_16_" cx="825.3548" cy="569.8475" r="186.9048" gradientUnits="userSpaceOnUse">
			<stop  offset="0" style="stop-color:#287DD1"/>
			<stop  offset="0" style="stop-color:#438ED7"/>
			<stop  offset="0" style="stop-color:#87B9E6"/>
			<stop  offset="0" style="stop-color:#F3FDFF"/>
		</radialGradient>
		<path class="st15" d="M776.2,378.3c50-17.4,68.8,35.5,111.7,46.6c52.4,13.6,83.4,0,104.9,31.3c21,30.6-6.3,93.9-10.5,134.1
			c-5.7,56.2,19.8,92.4-17,125.6c-31.1,28-66.9,9.6-112.6,20c-33.7,7.7-55,34.4-86.1,28.2c-43.4-8.7-51.9-37.5-69.6-84.7
			c-11.5-30.5-48.4-47.9-46.8-89.2c1.4-36.1,30.9-61.7,49.7-91.9C725.7,456.7,717.3,398.7,776.2,378.3z"/>
		<radialGradient id="SVGID_17_" cx="822.9656" cy="569.4784" r="196.9861" gradientUnits="userSpaceOnUse">
			<stop  offset="0" style="stop-color:#287DD1"/>
			<stop  offset="0" style="stop-color:#438ED7"/>
			<stop  offset="0" style="stop-color:#87B9E6"/>
			<stop  offset="0" style="stop-color:#F3FDFF"/>
		</radialGradient>
		<path class="st16" d="M770.9,367.5c52.9-18.5,72.5,37.7,117.9,49.3c55.6,14.2,88.4-0.5,111.1,32.5c22.1,32.2-7.2,99.2-11.7,141.6
			c-6.2,59.3,21.2,97.3-17.6,132.4c-32.8,29.7-70.5,9.8-118.6,20.8c-35.6,8.2-58,36.7-90.8,30.2c-45.9-9.1-54.7-39.5-73.3-89.4
			c-12.1-32.2-51.4-50.4-49.6-94c1.6-37.9,32.9-64.8,52.9-96.6C718.4,450.6,708.9,389.1,770.9,367.5z"/>
		<radialGradient id="SVGID_18_" cx="820.5763" cy="569.1093" r="207.078" gradientUnits="userSpaceOnUse">
			<stop  offset="0" style="stop-color:#287DD1"/>
			<stop  offset="0" style="stop-color:#438ED7"/>
			<stop  offset="0" style="stop-color:#87B9E6"/>
			<stop  offset="0" style="stop-color:#F3FDFF"/>
		</radialGradient>
		<path class="st17" d="M765.6,356.7c55.7-19.7,76.2,40,124,52.1c58.8,14.8,93.3-1.1,117.2,33.7c23.2,33.8-8.1,104.5-13,149.1
			c-6.7,62.3,22.7,102.3-18.1,139.2c-34.5,31.3-74.1,10-124.7,21.6c-37.4,8.6-60.9,39-95.5,32.2c-48.3-9.5-57.4-41.5-77.1-94.2
			c-12.7-33.9-54.4-52.9-52.3-98.9c1.6-39.8,35-67.9,56.1-101.3C711,444.5,700.4,379.4,765.6,356.7z"/>
		<radialGradient id="SVGID_19_" cx="818.187" cy="568.7402" r="217.1596" gradientUnits="userSpaceOnUse">
			<stop  offset="0" style="stop-color:#287DD1"/>
			<stop  offset="0" style="stop-color:#438ED7"/>
			<stop  offset="0" style="stop-color:#87B9E6"/>
			<stop  offset="0" style="stop-color:#F3FDFF"/>
		</radialGradient>
		<path class="st18" d="M760.2,345.8c58.6-20.8,79.9,42.2,130.1,54.8c62,15.5,98.2-1.6,123.3,34.9c24.3,35.4-9,109.9-14.2,156.7
			c-7.2,65.3,24.2,107.2-18.6,146c-36.2,32.9-77.7,10.2-130.7,22.4c-39.3,9.1-63.9,41.3-100.2,34.2c-50.8-9.9-60.2-43.5-80.8-98.9
			c-13.3-35.6-57.4-55.4-55.1-103.7c1.8-41.7,37.1-71,59.3-105.9C703.6,438.3,691.9,369.9,760.2,345.8z"/>
		<radialGradient id="SVGID_20_" cx="815.7978" cy="568.371" r="227.2418" gradientUnits="userSpaceOnUse">
			<stop  offset="0" style="stop-color:#287DD1"/>
			<stop  offset="0" style="stop-color:#438ED7"/>
			<stop  offset="0" style="stop-color:#87B9E6"/>
			<stop  offset="0" style="stop-color:#F3FDFF"/>
		</radialGradient>
		<path class="st19" d="M754.9,335c61.4-21.9,83.6,44.5,136.3,57.5c65.2,16.1,103.2-2.2,129.5,36c25.4,37-9.9,115.2-15.5,164.2
			c-7.7,68.3,25.6,112.1-19.2,152.8c-37.9,34.5-81.3,10.4-136.8,23.3c-41.2,9.5-66.8,43.6-105,36.2c-53.3-10.3-62.9-45.5-84.5-103.7
			c-13.9-37.4-60.3-57.9-57.9-108.5c2-43.6,39.2-74.1,62.5-110.6C696.2,432.2,683.5,360.3,754.9,335z"/>
		<radialGradient id="SVGID_21_" cx="813.4086" cy="568.0018" r="237.3255" gradientUnits="userSpaceOnUse">
			<stop  offset="0" style="stop-color:#287DD1"/>
			<stop  offset="0" style="stop-color:#438ED7"/>
			<stop  offset="0" style="stop-color:#87B9E6"/>
			<stop  offset="0" style="stop-color:#F3FDFF"/>
		</radialGradient>
		<path class="st20" d="M749.6,324.2c64.3-23,87.3,46.6,142.4,60.2c68.4,16.6,108.1-2.7,135.6,37.2c26.5,38.6-10.8,120.5-16.7,171.7
			c-8.1,71.3,27.1,117.1-19.7,159.7c-39.6,36.1-84.9,10.6-142.8,24.1c-43,10-69.7,45.9-109.7,38.2c-55.8-10.7-65.7-47.5-88.2-108.4
			c-14.5-39.1-63.3-60.4-60.7-113.4c2.1-45.5,41.3-77.2,65.7-115.3C688.8,426,675,350.8,749.6,324.2z"/>
		<radialGradient id="SVGID_22_" cx="811.0193" cy="567.6326" r="247.4082" gradientUnits="userSpaceOnUse">
			<stop  offset="0" style="stop-color:#287DD1"/>
			<stop  offset="0" style="stop-color:#438ED7"/>
			<stop  offset="0" style="stop-color:#87B9E6"/>
			<stop  offset="0" style="stop-color:#F3FDFF"/>
		</radialGradient>
		<path class="st21" d="M744.3,313.4c67.2-24.1,91,48.9,148.5,63c71.5,17.3,113.1-3.3,141.8,38.4c27.7,40.2-11.7,125.8-17.9,179.3
			c-8.6,74.4,28.5,122-20.3,166.5c-41.3,37.7-88.5,10.9-148.9,24.9c-44.9,10.5-72.7,48.2-114.4,40.2
			c-58.3-11.2-68.4-49.6-91.9-113.2c-15.1-40.8-66.2-62.9-63.4-118.2c2.3-47.3,43.4-80.3,68.9-120
			C681.4,419.9,666.6,341.2,744.3,313.4z"/>
		<radialGradient id="SVGID_23_" cx="808.6301" cy="567.2635" r="257.4912" gradientUnits="userSpaceOnUse">
			<stop  offset="0" style="stop-color:#287DD1"/>
			<stop  offset="0" style="stop-color:#438ED7"/>
			<stop  offset="0" style="stop-color:#87B9E6"/>
			<stop  offset="0" style="stop-color:#F3FDFF"/>
		</radialGradient>
		<path class="st22" d="M739,302.6c70.1-25.2,94.7,51.2,154.7,65.7c74.7,18,118-3.8,147.9,39.6c28.8,41.8-12.6,131.1-19.2,186.8
			c-9.1,77.4,30,126.9-20.8,173.3c-43,39.3-92,11.1-154.9,25.7c-46.8,10.9-75.6,50.4-119.1,42.2c-60.8-11.6-71.2-51.6-95.6-117.9
			c-15.7-42.5-69.1-65.4-66.2-123.1c2.4-49.2,45.5-83.3,72-124.7C674,413.8,658.1,331.6,739,302.6z"/>
		<radialGradient id="SVGID_24_" cx="806.2408" cy="566.8944" r="267.5746" gradientUnits="userSpaceOnUse">
			<stop  offset="0" style="stop-color:#287DD1"/>
			<stop  offset="0" style="stop-color:#438ED7"/>
			<stop  offset="0" style="stop-color:#87B9E6"/>
			<stop  offset="0" style="stop-color:#F3FDFF"/>
		</radialGradient>
		<path class="st23" d="M733.7,291.8c72.9-26.3,98.3,53.4,160.8,68.4c77.9,18.6,123-4.4,154.1,40.7c29.9,43.4-13.5,136.5-20.4,194.3
			c-9.6,80.4,31.5,131.8-21.3,180.1c-44.7,40.9-95.6,11.3-161,26.6c-48.6,11.4-78.6,52.7-123.8,44.2c-63.3-12-73.9-53.6-99.3-122.7
			c-16.3-44.2-72.1-67.9-69-127.9c2.6-51.1,47.6-86.4,75.2-129.3C666.7,407.6,649.7,322.1,733.7,291.8z"/>
		<radialGradient id="SVGID_25_" cx="803.8516" cy="566.5253" r="277.6581" gradientUnits="userSpaceOnUse">
			<stop  offset="0" style="stop-color:#287DD1"/>
			<stop  offset="0" style="stop-color:#438ED7"/>
			<stop  offset="0" style="stop-color:#87B9E6"/>
			<stop  offset="0" style="stop-color:#F3FDFF"/>
		</radialGradient>
		<path class="st24" d="M728.4,281c75.8-27.4,102,55.7,167,71.2c81.1,19.3,127.9-4.9,160.2,41.9c31,45-14.4,141.8-21.7,201.9
			c-10.1,83.4,32.9,136.8-21.9,186.9c-46.4,42.5-99.2,11.5-167,27.4c-50.5,11.8-81.5,55-128.5,46.2
			c-65.8-12.4-76.7-55.6-103.1-127.5c-16.9-45.9-75-70.4-71.8-132.8c2.8-53,49.6-89.5,78.4-134C659.3,401.5,641.2,312.5,728.4,281z"
			/>
		<radialGradient id="SVGID_26_" cx="801.4623" cy="566.1561" r="287.7419" gradientUnits="userSpaceOnUse">
			<stop  offset="0" style="stop-color:#287DD1"/>
			<stop  offset="0" style="stop-color:#438ED7"/>
			<stop  offset="0" style="stop-color:#87B9E6"/>
			<stop  offset="0" style="stop-color:#F3FDFF"/>
		</radialGradient>
		<path class="st25" d="M1062.5,387.2c32.1,46.6-15.3,147.1-22.9,209.4c-10.5,86.5,34.4,141.7-22.4,193.7
			C969,834.3,914.4,802,844.1,818.5c-52.3,12.3-84.4,57.3-133.3,48.2c-68.3-12.8-79.4-57.6-106.8-132.2
			c-17.5-47.6-78-72.9-74.6-137.6c2.9-54.9,51.7-92.6,81.6-138.7c40.7-62.8,21.6-155.2,111.9-188c78.7-28.5,105.7,58,173.1,73.9
			C980.4,364,1029,338.6,1062.5,387.2z"/>
	</g>
</g>
<g id="Слой_11">
	<text transform="matrix(1 0 0 1 432.6747 384.9574)" class="st26 st27 st28">Registration</text>
</g>
<g id="Слой_1" class="st29">
	
		<image style="display:inline;overflow:visible;" width="1712" height="2217" xlink:href="../../../../../../Desktop/IMG_7773.png"  transform="matrix(0.2062 0 0 0.2062 18.8258 26.891)">
	</image>
</g>
<g id="Слой_6">
	<g id="Слой_3">
		<path class="st30" d="M333.1,155.9L333.1,155.9c2.2,0,4.3-0.8,6-2.1l5.4-4.4c0.7-0.6,1.3-1.2,1.8-1.9l3.4-4.9
			c1.7-2.4,2.2-5.5,1.3-8.3l-3.6-11.4c-1.6-5-4.3-9.6-8.1-13.4l-4.3-4.3c-1.9-1.9-4-3.4-6.4-4.5l-9.5-4.5c-4.3-2-6.4-6.9-5-11.5
			l4-12.7c0.6-1.9,0.6-4-0.1-5.9v0c-2.6-7.7-7.3-14.5-13.6-19.6l-4.8-3.9c-0.8-0.7-1.8-1.2-2.8-1.6l-11.3-4.1
			c-3.2-1.1-6.5-1.7-9.9-1.7h-29.3c-1.2,0-2.5,0.2-3.6,0.7l-4.4,1.8c-1.5,0.6-3,1-4.6,1.2l-32.4,3.5c-0.7,0.1-1.4,0.2-2.1,0.5
			l-27.5,9.5L149.6,60c-0.3,0.1-0.5,0.2-0.8,0.3l-29,13.1c-0.7,0.3-1.3,0.7-1.9,1.1l-44.3,33.9c-0.7,0.5-1.3,1.1-1.8,1.8l-14,18.2
			c-0.9,1.2-1.6,2.7-1.8,4.2l-4.9,28.7c0,0.3-0.1,0.6-0.1,0.8l-8.7,107.5c-0.1,0.7,0,1.4,0.1,2l0.7,19.9c0.5,13.2,3.1,26.4,7.8,38.7
			c0.9,2.4,1.7,4.1,2.1,4.5l68.5,66.2c0.1,0.1,0.3,0.3,0.5,0.4l62.7,53.2c0.8,0.7,5.2,2.4,9.3,4c0.7,0.3,1.4,0.6,2,0.9l6.9,3.2
			c4.5,2.1,9.3,3.5,14.2,4.2c0.7,0.1,1.2,0.2,1.5,0.2h20.5c10.6-2.2,16.1-8.1,17.8-9.4l38.9-33.5c1-0.8,1.9-1.9,2.5-3.1l10-19.4
			c4.9-9.4,8.3-19.5,10.1-30l12.8-72.7c3.5-26.4,7.7-52.9,3.3-79.2l-3.6-26.3c-0.1-0.4-0.1-0.9-0.3-1.3l-6.8-24.3
			C322.2,161.9,326.7,155.9,333.1,155.9z"/>
	</g>
	<g id="Слой_2">
		<path class="st31" d="M302.8,161.7l-31.8,2c-13.1,0.8-26.3-0.4-39-3.7l-30.8-7.9c0,0-0.1,0-0.3,0c-2.7-0.2-3.5-0.1-5,0.2l-78.8,10
			c-11.1,1.4-20,9.9-22,21l-20.6,96.5c-4.4,20.6,5.6,41.5,24.3,51l75,32.2c6.6,2.8,13.5,5.1,20.6,6.8l59,13.9
			c12.2,2.9,24.9,1.2,36-4.5c13.4-7,24.8-11.2,25.4-13.7c11.9-46,13.1-63.5,14.6-77.5c2.5-23.7,3.4-77.4-1.4-103.2
			C324.1,163.1,313.9,161.6,302.8,161.7z"/>
	</g>
	<g id="Слой_9">
		<path class="st31" d="M44.2,197.5c-8-4-17.7-1.6-22.9,5.6c-9.6,11.6-16.9,38,8.5,48.3c19.8,8,23.3-5,23.3-5l3.2-39.3L44.2,197.5z"
			/>
	</g>
	<g id="Слой_4">
		<polygon class="st30" points="174.2,193.9 158,230.3 234,204.1 236.3,177.9 		"/>
	</g>
	<g id="Слой_5">
		<polyline class="st30" points="232.6,224.7 165.9,244.8 168.3,247.8 233.6,231.7 		"/>
	</g>
	<g id="Слой_8">
		<polygon class="st30" points="280,177.9 273,204.1 326.1,214.4 316.8,191.5 		"/>
	</g>
	<g id="Слой_5__x28_копия_x29_">
		<polyline class="st30" points="274.2,221.3 324.1,236.2 324,240.7 274.2,230.3 		"/>
	</g>
</g>
</svg>
